<svg width="113" height="84" viewBox="0 0 113 84" fill="none" xmlns="http://www.w3.org/2000/svg">
<path d="M50.0239 8.67401L43.4916 15.026C43.0107 15.4869 42.2493 15.4768 41.7884 14.9959L35.3763 8.39348C34.9054 7.91258 34.9154 7.15114 35.3963 6.69027L41.9387 0.338297C42.4096 -0.122572 43.181 -0.112552 43.6419 0.368354L50.054 6.9708C50.5148 7.45171 50.5048 8.21314 50.0239 8.67401Z" fill="#050505"/>
<path d="M77.3447 9.30513L70.8024 15.6471C70.3214 16.1079 69.56 16.0979 69.0991 15.627L62.6871 9.01458C62.2162 8.53367 62.2362 7.77223 62.7071 7.31137L69.2494 0.959392C69.7303 0.498523 70.4918 0.508541 70.9526 0.989447L77.3647 7.5919C77.8256 8.0728 77.8156 8.83424 77.3447 9.30513Z" fill="#050505"/>
<path d="M70.5326 38.6913V23.2522L84.0781 9.70665L83.1063 8.74483L69.8513 21.9998L56.1856 8.25391L42.5198 21.9998L29.2648 8.74483L28.293 9.70665L41.8385 23.2522V38.6913L29.2648 26.1176L28.293 27.0794L42.5198 41.3062L55.5043 28.2516V41.2862H56.8668V28.2516L69.8513 41.3062L84.0781 27.0794L83.1063 26.1176L70.5326 38.6913ZM43.2011 38.6813V23.2522L55.5043 10.8789V26.3079L43.2011 38.6813ZM56.8668 10.8789L69.17 23.2422V38.6813L56.8668 26.3079V10.8789Z" fill="#050505"/>
<path d="M0.0605469 55.643C0.0605469 52.1163 2.51519 49.6016 5.91159 49.6016C8.05563 49.6016 9.46829 50.4632 10.6305 52.1163L9.75884 52.8677C8.90723 51.4551 7.58474 50.7537 5.91159 50.7537C3.34675 50.7537 1.30289 52.7876 1.30289 55.643C1.30289 58.4983 3.22653 60.5422 5.91159 60.5422C8.24599 60.5422 10.0694 59.0594 10.0694 56.715H5.7112V55.5528H11.2617V61.6142H10.1896L10.0293 59.8308C9.34805 60.7526 8.17586 61.7044 5.91159 61.7044C2.51519 61.7044 0.0605469 59.1796 0.0605469 55.643Z" fill="#050505"/>
<path d="M5.91115 61.7641C2.48469 61.7641 0 59.1892 0 55.6425C0 52.1059 2.48469 49.541 5.91115 49.541C7.97504 49.541 9.44782 50.3225 10.6801 52.0858L10.7102 52.1259L9.74837 52.9575L9.70831 52.8973C8.8734 51.5147 7.60769 50.8201 5.91115 50.8134C3.31626 50.8134 1.36257 52.8873 1.36257 55.6425C1.36257 58.4478 3.27619 60.4816 5.91115 60.4816C8.30567 60.4816 9.97882 58.9588 10.0089 56.7747H5.65065V55.5023H11.3213V61.6739H10.1291L9.98883 59.9907C9.04706 61.183 7.71455 61.7641 5.91115 61.7641ZM5.91115 49.6612C2.55483 49.6612 0.120222 52.176 0.120222 55.6425C0.120222 59.1191 2.55483 61.6438 5.91115 61.6438C7.73459 61.6438 9.0671 61.0427 9.98883 59.7903L10.079 59.6701L10.2393 61.5537H11.2011V55.6125H5.77087V56.6544H10.1291V56.7145C10.1291 59.0089 8.39584 60.6019 5.91115 60.6019C3.20605 60.6019 1.24235 58.5179 1.24235 55.6425C1.24235 52.8272 3.24613 50.6932 5.91115 50.6932C7.59433 50.6932 8.92682 51.4146 9.77843 52.7771L10.5499 52.1059C9.34762 50.4127 7.91493 49.6612 5.91115 49.6612Z" fill="#050505"/>
<path d="M13.6953 49.7012H17.9834C20.5382 49.7012 22.1513 51.214 22.1513 53.3781C22.1513 54.8609 21.3197 56.0331 19.9371 56.5741L22.6322 61.6136H21.2996L18.7549 56.8346C18.5478 56.868 18.3407 56.8847 18.1337 56.8847H14.8876V61.6136H13.6953V49.7012ZM18.1337 55.7325C19.877 55.7325 20.9089 54.7607 20.9089 53.3781C20.9089 51.8653 19.8269 50.8133 18.0034 50.8133H14.8876V55.7325H18.1337Z" fill="#050505"/>
<path d="M22.7319 61.6733H21.2692L18.7143 56.8943C18.5207 56.9277 18.327 56.9444 18.1333 56.9444H14.9472V61.6733H13.6348V49.6406H17.983C20.5177 49.6406 22.2109 51.1435 22.2109 53.3777C22.2109 54.8404 21.3994 56.0427 20.0268 56.6037L22.7319 61.6733ZM21.3393 61.5631H22.5315L19.8565 56.5537L19.9166 56.5236C21.2792 55.9826 22.0907 54.8104 22.0907 53.3777C22.0907 51.2136 20.4476 49.7608 17.983 49.7608H13.755V61.5631H14.827V56.8242H18.1333C18.3336 56.8242 18.5373 56.8075 18.7444 56.7741H18.7845L18.8045 56.8041L21.3393 61.5631ZM18.1333 55.7922H14.827V50.7627H18.003C19.8064 50.7627 20.9686 51.7947 20.9686 53.3877C20.9686 54.8504 19.8565 55.7922 18.1333 55.7922ZM14.9472 55.682H18.1333C19.7864 55.682 20.8484 54.7803 20.8484 53.3877C20.8484 51.8648 19.7363 50.8729 18.003 50.8729H14.9472V55.682Z" fill="#050505"/>
<path d="M24.627 49.6816H32.8424V50.7436H25.8192V54.3705H32.0309V55.4225H25.8192V60.5621H33.0128V61.6141H24.627V49.6816Z" fill="#050505"/>
<path d="M33.0724 61.6738H24.5664V49.6211H32.9021V50.8033H25.8789V54.3099H32.0906V55.4821H25.8789V60.5016H33.0724V61.6738ZM24.6866 61.5536H32.9522V60.6218H25.7587V55.3619H31.9704V54.4201H25.7587V50.6831H32.7819V49.7413H24.6866V61.5536Z" fill="#050505"/>
<path d="M35.2266 49.6816H43.4521V50.7436H36.4188V54.3705H42.6305V55.4225H36.4188V60.5621H43.6224V61.6141H35.2266V49.6816Z" fill="#050505"/>
<path d="M43.6821 61.6738H35.166V49.6211H43.5118V50.8033H36.4785V54.3099H42.6902V55.4821H36.4785V60.5016H43.6821V61.6738ZM35.2862 61.5536H43.5618V60.6218H36.3583V55.3619H42.57V54.4201H36.3583V50.6831H43.3915V49.7413H35.2862V61.5536Z" fill="#050505"/>
<path d="M45.6973 49.7012H49.2239L52.1294 60.5116H53.4619V49.7012H54.6542V61.6136H51.1475L48.232 50.8032H46.8895V61.6136H45.6973V49.7012Z" fill="#050505"/>
<path d="M54.7138 61.6733H51.097L48.1915 50.8629H46.9492V61.6733H45.6367V49.6406H49.2636L52.1791 60.451H53.4014V49.6406H54.7138V61.6733ZM51.1872 61.5531H54.5936V49.7608H53.5216V60.5712H52.0889L49.1734 49.7608H45.7569V61.5531H46.829V50.7427H48.2817L51.1872 61.5531Z" fill="#050505"/>
<path d="M57.2793 49.7012H58.4715V54.37H64.9237V49.7012H66.1059V61.6136H64.9237V55.422H58.4715V61.6136H57.2793V49.7012Z" fill="#050505"/>
<path d="M66.1656 61.6733H64.8632V55.4816H58.5312V61.6733H57.2188V49.6406H58.5312V54.3094H64.8632V49.6406H66.1656V61.6733ZM64.9734 61.5531H66.0554V49.7608H64.9734V54.4196H58.411V49.7608H57.339V61.5531H58.411V55.3614H64.9734V61.5531Z" fill="#050505"/>
<path d="M68.4395 55.6423C68.4395 52.0655 70.8941 49.5508 74.4007 49.5508C77.9073 49.5508 80.3419 52.0655 80.3419 55.6423C80.3419 59.219 77.9073 61.7538 74.4007 61.7538C70.8941 61.7538 68.4395 59.219 68.4395 55.6423ZM79.0996 55.6423C79.0996 52.7869 77.1258 50.703 74.4007 50.703C71.6555 50.703 69.6818 52.7869 69.6818 55.6423C69.6818 58.5177 71.6555 60.5916 74.4007 60.5916C77.1258 60.5916 79.0996 58.5177 79.0996 55.6423Z" fill="#050505"/>
<path d="M74.4003 61.8135C70.8536 61.8135 68.3789 59.2787 68.3789 55.6418C68.3789 52.015 70.8536 49.4902 74.4003 49.4902C77.9369 49.4902 80.4016 52.015 80.4016 55.6418C80.4016 59.2787 77.9369 61.8135 74.4003 61.8135ZM74.4003 49.6105C70.9237 49.6105 68.4991 52.0851 68.4991 55.6418C68.4991 59.2086 70.9237 61.6932 74.4003 61.6932C77.8668 61.6932 80.2814 59.2086 80.2814 55.6418C80.2814 52.0851 77.8668 49.6105 74.4003 49.6105ZM74.4003 60.6513C71.635 60.6513 69.6213 58.5473 69.6213 55.6418C69.6213 52.7464 71.635 50.6424 74.4003 50.6424C77.1554 50.6424 79.1592 52.7464 79.1592 55.6418C79.1592 58.5473 77.1554 60.6513 74.4003 60.6513ZM74.4003 50.7626C71.7052 50.7626 69.7415 52.8165 69.7415 55.6418C69.7415 58.4772 71.7052 60.531 74.4003 60.531C77.0853 60.531 79.039 58.4772 79.039 55.6418C79.039 52.8165 77.0853 50.7626 74.4003 50.7626Z" fill="#050505"/>
<path d="M82.3164 57.2554V49.7012H83.5087V57.2554C83.5087 59.3393 84.731 60.5817 86.7648 60.5817C88.6383 60.5817 89.7705 59.3494 89.7705 57.2554V49.7012H90.9627V57.2554C90.9627 60.0306 89.4198 61.7339 86.7648 61.7339C83.9495 61.7339 82.3164 60.0306 82.3164 57.2554Z" fill="#050505"/>
<path d="M86.7644 61.7935C83.939 61.7935 82.2559 60.1003 82.2559 57.255V49.6406H83.5683V57.255C83.5683 59.2988 84.7606 60.5211 86.7644 60.5211C88.6078 60.5211 89.7099 59.2988 89.7099 57.255V49.6406H91.0224V57.255C91.0224 60.1003 89.4294 61.7935 86.7644 61.7935ZM82.3761 49.7608V57.255C82.3761 60.0202 84.0192 61.6733 86.7644 61.6733C89.3593 61.6733 90.9021 60.0202 90.9021 57.255V49.7608H89.8301V57.255C89.8301 59.369 88.688 60.6414 86.7644 60.6414C84.6904 60.6414 83.4481 59.369 83.4481 57.255V49.7608H82.3761Z" fill="#050505"/>
<path d="M92.7656 58.8781L93.6172 58.0365C94.3486 59.5694 95.9316 60.5412 97.6749 60.5412C99.6686 60.5412 100.681 59.6395 100.681 58.4974C100.681 57.4955 99.7788 56.7842 98.2159 56.2732L96.9535 55.8624C94.1983 54.9908 93.2766 54.0791 93.2766 52.5261C93.2766 50.7728 94.7794 49.5605 97.1739 49.5605C99.328 49.5605 100.841 50.843 101.312 51.8749L100.52 52.7265C100.009 51.7447 98.9974 50.7728 97.1639 50.7728C95.4807 50.7728 94.4688 51.4341 94.4688 52.5462C94.4688 53.4779 95.2403 54.039 97.2942 54.6702L98.4363 55.0309C101.091 55.8424 101.873 56.9044 101.873 58.4473C101.873 60.391 100.21 61.7535 97.7751 61.7535C95.7312 61.7535 93.6072 60.5813 92.7656 58.8781Z" fill="#050505"/>
<path d="M97.7749 61.813C95.6709 61.813 93.5469 60.5907 92.7154 58.8975L92.6953 58.8674L93.6371 57.9357L93.6772 58.0158C94.3885 59.5186 95.9615 60.4805 97.6747 60.4805C99.4681 60.4805 100.63 59.709 100.63 58.4967C100.637 57.575 99.8254 56.8503 98.1957 56.3226L96.9433 55.9219C94.2282 55.0703 93.2263 54.1485 93.2263 52.5255C93.2263 50.692 94.7792 49.5098 97.1738 49.5098C99.4581 49.5098 100.931 50.9124 101.372 51.8542L101.382 51.8943L100.5 52.836L100.46 52.7559C100.009 51.8742 99.0673 50.8323 97.1637 50.8323C95.5106 50.8323 94.5288 51.4735 94.5288 52.5455C94.5288 53.4472 95.2601 53.9882 97.314 54.6094L98.4562 54.9701C100.931 55.7315 101.933 56.7434 101.933 58.4466C101.933 60.4304 100.23 61.813 97.7749 61.813ZM92.8456 58.8874C93.6671 60.5105 95.731 61.6927 97.7749 61.6927C100.159 61.6927 101.823 60.3602 101.823 58.4466C101.823 57.054 101.241 55.9519 98.4161 55.0803L97.284 54.7296C95.16 54.0784 94.4085 53.5073 94.4085 52.5455C94.4085 51.3933 95.4405 50.712 97.1637 50.712C99.0773 50.712 100.049 51.734 100.53 52.6256L101.241 51.8642C100.801 50.9525 99.3779 49.62 97.1738 49.62C94.8494 49.62 93.3365 50.7621 93.3365 52.5255C93.3365 54.0784 94.3284 54.9701 96.9734 55.8016L98.2358 56.2124C99.9189 56.7601 100.754 57.5215 100.74 58.4967C100.74 59.7791 99.5382 60.6007 97.6747 60.6007C95.9414 60.6007 94.3585 59.6389 93.607 58.136L92.8456 58.8874Z" fill="#050505"/>
<path d="M103.916 49.6816H112.142V50.7436H105.108V54.3705H111.32V55.4225H105.108V60.5621H112.312V61.6141H103.916V49.6816Z" fill="#050505"/>
<path d="M112.372 61.6738H103.855V49.6211H112.201V50.8033H105.168V54.3099H111.38V55.4821H105.168V60.5016H112.372V61.6738ZM103.976 61.5536H112.251V60.6218H105.048V55.3619H111.269V54.4201H105.048V50.6831H112.081V49.7413H103.976V61.5536Z" fill="#050505"/>
<path d="M24.3259 78.0544H24.8168C24.9905 78.0544 25.1274 78.031 25.2276 77.9843C25.3345 77.9442 25.428 77.8707 25.5081 77.7639L28.7242 74.127C28.8177 74.0068 28.9146 73.9266 29.0147 73.8865C29.1083 73.8398 29.2285 73.8164 29.3754 73.8164H30.4775L26.8006 77.9742C26.7137 78.0811 26.6269 78.1713 26.5401 78.2448C26.4599 78.3115 26.3731 78.3683 26.2796 78.4151C26.3998 78.4552 26.5067 78.5153 26.6002 78.5954C26.7004 78.6756 26.7972 78.7758 26.8907 78.896L30.738 83.4746H29.6059C29.519 83.4746 29.4456 83.4713 29.3854 83.4646C29.3253 83.4512 29.2719 83.4312 29.2251 83.4045C29.1784 83.3778 29.1383 83.3477 29.1049 83.3143C29.0715 83.2809 29.0415 83.2442 29.0147 83.2041L25.6785 79.3669C25.5916 79.2533 25.4948 79.1732 25.3879 79.1264C25.2877 79.0797 25.1307 79.0563 24.917 79.0563H24.3259V83.4746H23.0234V73.8164H24.3259V78.0544Z" fill="#050505"/>
<path d="M42.5099 83.4746H41.498C41.3778 83.4746 41.2843 83.4446 41.2175 83.3844C41.144 83.331 41.0873 83.2575 41.0472 83.164L40.1455 80.8296H35.8173L34.9056 83.164C34.8789 83.2442 34.8288 83.3177 34.7553 83.3844C34.6818 83.4446 34.5883 83.4746 34.4748 83.4746H33.4629L37.3202 73.8164H38.6427L42.5099 83.4746ZM39.7848 79.8879L38.2719 75.9604C38.2252 75.8402 38.1784 75.7033 38.1317 75.5497C38.0782 75.3961 38.0315 75.2324 37.9914 75.0587C37.8979 75.4194 37.8011 75.72 37.7009 75.9604L36.178 79.8879H39.7848Z" fill="#050505"/>
<path d="M51.9588 82.3826V83.4746H46.4785V73.8164H47.781V82.3826H51.9588Z" fill="#050505"/>
<path d="M58.4507 79.6274V83.4746H57.1382V79.6274L53.6016 73.8164H54.7537C54.8673 73.8164 54.9575 73.8431 55.0242 73.8966C55.091 73.9567 55.1512 74.0301 55.2046 74.117L57.4087 77.8741C57.4956 78.0344 57.5724 78.1813 57.6392 78.3149C57.706 78.4551 57.7627 78.5954 57.8095 78.7357C57.8562 78.5954 57.913 78.4551 57.9798 78.3149C58.0399 78.1813 58.1101 78.0344 58.1902 77.8741L60.3944 74.117C60.4344 74.0435 60.4912 73.9734 60.5647 73.9066C60.6315 73.8465 60.7217 73.8164 60.8352 73.8164H61.9874L58.4507 79.6274Z" fill="#050505"/>
<path d="M73.7583 73.8164V83.4746H73.1071C73.0003 83.4746 72.9134 83.4579 72.8466 83.4245C72.7732 83.3844 72.703 83.3243 72.6362 83.2442L67.0557 75.9604C67.0624 76.074 67.0691 76.1842 67.0757 76.2911C67.0757 76.3979 67.0757 76.4981 67.0757 76.5916V83.4746H65.9336V73.8164H66.6049C66.665 73.8164 66.7151 73.8197 66.7551 73.8264C66.7952 73.8331 66.832 73.8431 66.8654 73.8565C66.8921 73.8765 66.9221 73.8999 66.9555 73.9266C66.9889 73.9533 67.0223 73.9901 67.0557 74.0368L72.6462 81.3105C72.6396 81.197 72.6329 81.0834 72.6262 80.9699C72.6195 80.863 72.6162 80.7595 72.6162 80.6593V73.8164H73.7583Z" fill="#050505"/>
<path d="M80.2304 83.4746H78.918V73.8164H80.2304V83.4746Z" fill="#050505"/>
<path d="M93.2463 73.8164L89.3088 83.4746H88.1366L84.1992 73.8164H85.2512C85.3647 73.8164 85.4582 73.8465 85.5317 73.9066C85.6052 73.96 85.6586 74.0335 85.692 74.127L88.4172 80.9398C88.4773 81.0935 88.534 81.2604 88.5875 81.4408C88.6409 81.6211 88.691 81.8115 88.7378 82.0119C88.7845 81.8115 88.8313 81.6211 88.878 81.4408C88.9315 81.2604 88.9849 81.0935 89.0383 80.9398L91.7635 74.127C91.7902 74.0535 91.8403 73.9834 91.9138 73.9166C91.9939 73.8498 92.0908 73.8164 92.2043 73.8164H93.2463Z" fill="#050505"/>
<path d="M0.220703 67.0547V68.267H112.152V67.0547H0.220703Z" fill="#050505"/>
</svg>
