<svg width="279" height="557" viewBox="0 0 279 557" fill="none" xmlns="http://www.w3.org/2000/svg">
<path d="M69.5591 0C31.1441 0 0 31.1441 0 69.5591C38.415 69.5591 69.5591 38.415 69.5591 0Z" fill="#81151C"/>
<path d="M139.129 69.5591C139.129 31.1441 107.985 0 69.5596 0C69.5596 38.415 100.704 69.5591 139.129 69.5591Z" fill="#81151C"/>
<path d="M0 69.5586C0 107.974 31.1441 139.118 69.5591 139.118C69.5591 100.703 38.415 69.5586 0 69.5586Z" fill="#81151C"/>
<path d="M69.5596 139.118C107.985 139.118 139.129 107.974 139.129 69.5586C100.704 69.5586 69.5596 100.703 69.5596 139.118Z" fill="#81151C"/>
<path d="M209.328 69.5591C209.328 69.5391 209.328 69.5224 209.328 69.5091C247.273 68.959 277.867 38.075 277.867 0C242.202 0 212.838 26.8635 208.818 61.448C204.797 26.8635 175.433 0 139.769 0C139.769 38.075 170.363 68.959 208.308 69.5091C208.308 69.5224 208.308 69.5391 208.308 69.5591C208.474 69.5524 208.644 69.5424 208.818 69.5291C208.991 69.5424 209.161 69.5524 209.328 69.5591Z" fill="#92AE9E"/>
<path d="M209.328 69.6086C209.328 69.5953 209.328 69.5786 209.328 69.5586C209.161 69.5653 208.991 69.5753 208.818 69.5886C208.644 69.5753 208.474 69.5653 208.308 69.5586C208.308 69.5786 208.308 69.5953 208.308 69.6086C170.363 70.1587 139.769 101.043 139.769 139.118C175.433 139.118 204.797 112.254 208.818 77.6597C212.838 112.254 242.202 139.118 277.867 139.118C277.867 101.043 247.273 70.1587 209.328 69.6086Z" fill="#92AE9E"/>
<path d="M69.5591 173.904C69.5591 154.691 53.9871 139.119 34.7845 139.119C15.572 139.119 0 154.691 0 173.904C0 193.116 15.572 208.688 34.7845 208.688C53.9871 208.688 69.5591 193.116 69.5591 173.904Z" fill="#003212"/>
<path d="M104.344 208.688C123.557 208.688 139.129 193.116 139.129 173.904C139.129 154.691 123.557 139.119 104.344 139.119C85.1316 139.119 69.5596 154.691 69.5596 173.904C69.5596 193.116 85.1316 208.688 104.344 208.688Z" fill="#003212"/>
<path d="M34.7845 208.688C15.572 208.688 0 224.26 0 243.462C0 262.675 15.572 278.247 34.7845 278.247C53.9871 278.247 69.5591 262.675 69.5591 243.462C69.5591 224.26 53.9871 208.688 34.7845 208.688Z" fill="#003212"/>
<path d="M104.344 208.688C85.1316 208.688 69.5596 224.26 69.5596 243.462C69.5596 262.675 85.1316 278.247 104.344 278.247C123.557 278.247 139.129 262.675 139.129 243.462C139.129 224.26 123.557 208.688 104.344 208.688Z" fill="#003212"/>
<path d="M208.817 139.119C170.402 139.119 139.258 170.263 139.258 208.688C177.673 208.688 208.817 177.544 208.817 139.119Z" fill="#81151C"/>
<path d="M278.376 208.688C278.376 170.263 247.232 139.119 208.817 139.119C208.817 177.544 239.961 208.688 278.376 208.688Z" fill="#81151C"/>
<path d="M139.258 208.688C139.258 247.103 170.402 278.247 208.817 278.247C208.817 239.832 177.673 208.688 139.258 208.688Z" fill="#81151C"/>
<path d="M208.817 278.247C247.232 278.247 278.376 247.103 278.376 208.688C239.961 208.688 208.817 239.832 208.817 278.247Z" fill="#81151C"/>
<path d="M69.5591 278.246C31.1441 278.246 0 309.39 0 347.815C38.415 347.815 69.5591 316.661 69.5591 278.246Z" fill="#92AE9E"/>
<path d="M139.129 347.815C139.129 309.39 107.985 278.246 69.5596 278.246C69.5596 316.661 100.704 347.815 139.129 347.815Z" fill="#92AE9E"/>
<path d="M0 347.814C0 386.229 31.1441 417.374 69.5591 417.374C69.5591 378.959 38.415 347.814 0 347.814Z" fill="#92AE9E"/>
<path d="M69.5596 417.374C107.985 417.374 139.129 386.229 139.129 347.814C100.704 347.814 69.5596 378.959 69.5596 417.374Z" fill="#92AE9E"/>
<path d="M208.817 278.246C170.402 278.246 139.258 309.39 139.258 347.815C177.673 347.815 208.817 316.661 208.817 278.246Z" fill="#81151C"/>
<path d="M278.376 347.815C278.376 309.39 247.232 278.246 208.817 278.246C208.817 316.661 239.961 347.815 278.376 347.815Z" fill="#81151C"/>
<path d="M139.258 347.814C139.258 386.229 170.402 417.374 208.817 417.374C208.817 378.959 177.673 347.814 139.258 347.814Z" fill="#81151C"/>
<path d="M208.817 417.374C247.232 417.374 278.376 386.229 278.376 347.814C239.961 347.814 208.817 378.959 208.817 417.374Z" fill="#81151C"/>
<path d="M211.747 536.571V486.794C248.792 485.244 278.376 454.8 278.376 417.375C246.892 417.375 220.318 438.308 211.747 467.012V417.375H206.077V467.752C197.735 438.678 171.012 417.375 139.258 417.375C139.258 454.87 168.942 485.344 206.077 486.794V537.311C197.735 508.237 171.012 486.934 139.258 486.934C139.258 524.429 168.942 554.913 206.077 556.363V556.503H211.747V556.353C248.792 554.803 278.376 524.369 278.376 486.934C246.892 486.934 220.318 507.867 211.747 536.571Z" fill="#003212"/>
<path d="M72.3995 536.951V486.794C109.494 485.294 139.128 454.84 139.128 417.375C107.504 417.375 80.8506 438.498 72.3995 467.382V417.365H66.7287V467.372C58.2676 438.488 31.6241 417.375 0 417.375C0 454.83 29.6339 485.294 66.7287 486.794V536.941C58.2676 508.057 31.6241 486.934 0 486.934C0 524.399 29.6339 554.853 66.7287 556.353V556.503H72.3995V556.353C109.494 554.853 139.128 524.399 139.128 486.934C107.504 486.934 80.8506 508.057 72.3995 536.951Z" fill="#003212"/>
</svg>
