<svg width="113" height="84" viewBox="0 0 113 84" fill="none" xmlns="http://www.w3.org/2000/svg">
<path d="M50.034 8.67401L43.4917 15.026C43.0208 15.4869 42.2493 15.4768 41.7885 14.9959L35.3764 8.39348C34.9155 7.91258 34.9255 7.15114 35.4064 6.68026L41.9388 0.338297C42.4197 -0.122572 43.1811 -0.112552 43.642 0.368354L50.0541 6.9708C50.5249 7.45171 50.5149 8.21314 50.034 8.67401Z" fill="#FEFEFE"/>
<path d="M77.3455 9.30512L70.8032 15.6471C70.3323 16.108 69.5609 16.0979 69.1 15.617L62.6879 9.01458C62.227 8.53367 62.2371 7.77223 62.718 7.31136L69.2503 0.959391C69.7312 0.498522 70.4926 0.508541 70.9535 0.989448L77.3756 7.5919C77.8365 8.0728 77.8264 8.83424 77.3455 9.30512Z" fill="#FEFEFE"/>
<path d="M70.5333 38.6903V23.2512L84.0789 9.70567L83.1171 8.74385L69.852 21.9988L56.1863 8.25293L42.5305 21.9988L29.2655 8.74385L28.3037 9.70567L41.8392 23.2412V38.6903L29.2655 26.1166L28.3037 27.0784L42.5305 41.3052L55.505 28.2506V41.2852H56.8676V28.2506L69.852 41.3052L84.0789 27.0784L83.1171 26.1166L70.5333 38.6903ZM43.2018 38.6803V23.2512L55.505 10.8779V26.307L43.2018 38.6803ZM56.8676 10.8779L69.1607 23.2412V38.6803L56.8676 26.307V10.8779Z" fill="#FEFEFE"/>
<path d="M0.0605469 55.643C0.0605469 52.1163 2.51517 49.6016 5.9216 49.6016C8.06564 49.6016 9.4783 50.4632 10.6305 52.1163L9.76885 52.8677C8.91725 51.4551 7.58473 50.7537 5.9216 50.7537C3.34674 50.7537 1.30289 52.7776 1.30289 55.643C1.30289 58.4983 3.22652 60.5422 5.9216 60.5422C8.256 60.5422 10.0694 59.0594 10.0694 56.715H5.7112V55.5528H11.2617V61.6142H10.1896L10.0394 59.8308C9.35808 60.7526 8.18587 61.7044 5.9216 61.7044C2.51517 61.7044 0.0605469 59.1796 0.0605469 55.643Z" fill="#FEFEFE"/>
<path d="M5.92116 61.7641C2.4947 61.7641 0 59.1892 0 55.6425C0 52.1059 2.4947 49.541 5.92116 49.541C7.97504 49.541 9.44781 50.3225 10.6801 52.0858L10.7102 52.1259L9.74838 52.9575L9.71832 52.8973C8.87674 51.5147 7.61102 50.8201 5.92116 50.8134C3.32627 50.8134 1.36257 52.8873 1.36257 55.6425C1.36257 58.4478 3.27618 60.4816 5.92116 60.4816C8.30566 60.4816 9.97881 58.9588 10.0089 56.7747H5.65065V55.4922H11.3213V61.6739H10.1391L9.98883 59.9907C9.04706 61.183 7.71454 61.7641 5.92116 61.7641ZM5.92116 49.6612C2.56484 49.6612 0.120227 52.176 0.120227 55.6425C0.120227 59.1191 2.56484 61.6438 5.92116 61.6438C7.73458 61.6438 9.06709 61.0327 9.98883 59.7903L10.079 59.6701L10.2493 61.5537H11.2011V55.6125H5.77088V56.6544H10.1291V56.7145C10.1291 58.9989 8.39583 60.6019 5.92116 60.6019C3.21606 60.6019 1.24234 58.5179 1.24234 55.6425C1.24234 52.8272 3.25614 50.6932 5.92116 50.6932C7.60434 50.6932 8.93685 51.4146 9.77844 52.7771L10.5499 52.1058C9.34762 50.4127 7.91492 49.6612 5.92116 49.6612Z" fill="#FEFEFE"/>
<path d="M13.6963 49.7021H17.9944C20.5392 49.7021 22.1622 51.215 22.1622 53.3791C22.1622 54.8619 21.3307 56.0341 19.9481 56.5751L22.6331 61.6146H21.3106L18.7558 56.8356C18.5488 56.869 18.3451 56.8857 18.1447 56.8857H14.8885V61.6146H13.6963V49.7021ZM18.1447 55.7335C19.8779 55.7335 20.9199 54.7617 20.9199 53.3791C20.9199 51.8662 19.8279 50.8142 18.0044 50.8142H14.8885V55.7335H18.1447Z" fill="#FEFEFE"/>
<path d="M22.7329 61.6743H21.2701L18.7253 56.8953C18.5316 56.9287 18.3379 56.9454 18.1442 56.9454H14.9482V61.6743H13.6357V49.6416H17.994C20.5187 49.6416 22.2219 51.1444 22.2219 53.3787C22.2219 54.8414 21.4004 56.0437 20.0278 56.6047L22.7329 61.6743ZM21.3403 61.5641H22.5325L19.8675 56.5546L19.9276 56.5246C21.2902 55.9836 22.1017 54.8114 22.1017 53.3787C22.1017 51.2146 20.4486 49.7618 17.994 49.7618H13.756V61.5641H14.828V56.8251H18.1442C18.3446 56.8251 18.545 56.8084 18.7454 56.7751H18.7855L18.8055 56.8051L21.3403 61.5641ZM18.1442 55.7932H14.828V50.7537H18.004C19.8074 50.7537 20.9796 51.7856 20.9796 53.3887C20.9796 54.8514 19.8575 55.7932 18.1442 55.7932ZM14.9482 55.673H18.1442C19.7873 55.673 20.8594 54.7813 20.8594 53.3887C20.8594 51.8658 19.7372 50.8739 18.004 50.8739H14.9482V55.673Z" fill="#FEFEFE"/>
<path d="M24.627 49.6816H32.8525V50.7436H25.8192V54.3605H32.0309V55.4225H25.8192V60.5622H33.0228V61.6141H24.627V49.6816Z" fill="#FEFEFE"/>
<path d="M33.0825 61.6738H24.5664V49.6211H32.9121V50.8033H25.8789V54.3099H32.0906V55.4821H25.8789V60.5016H33.0825V61.6738ZM24.6866 61.5536H32.9622V60.6218H25.7587V55.3619H31.9704V54.4201H25.7587V50.6831H32.7919V49.7413H24.6866V61.5536Z" fill="#FEFEFE"/>
<path d="M35.2373 49.6816H43.4528V50.7436H36.4296V54.3605H42.6413V55.4225H36.4296V60.5622H43.6231V61.6141H35.2373V49.6816Z" fill="#FEFEFE"/>
<path d="M43.6828 61.6738H35.1768V49.6211H43.5125V50.8033H36.4892V54.3099H42.7009V55.4821H36.4892V60.5016H43.6828V61.6738ZM35.297 61.5536H43.5626V60.6218H36.369V55.3619H42.5807V54.4201H36.369V50.6831H43.3922V49.7413H35.297V61.5536Z" fill="#FEFEFE"/>
<path d="M45.707 49.7021H49.2237L52.1392 60.5125H53.4616V49.7021H54.6539V61.6146H51.1473L48.2418 50.8042H46.8993V61.6146H45.707V49.7021Z" fill="#FEFEFE"/>
<path d="M54.7136 61.6743H51.1068L48.1913 50.8639H46.959V61.6743H45.6465V49.6416H49.2733L52.1788 60.452H53.4111V49.6416H54.7136V61.6743ZM51.1969 61.5541H54.6034V49.7618H53.5213V60.5722H52.0886L49.1832 49.7618H45.7667V61.5541H46.8387V50.7437H48.2814L51.1969 61.5541Z" fill="#FEFEFE"/>
<path d="M57.2783 49.7021H58.4706V54.3609H64.9227V49.7021H66.115V61.6146H64.9227V55.4229H58.4706V61.6146H57.2783V49.7021Z" fill="#FEFEFE"/>
<path d="M66.1747 61.6743H64.8622V55.4826H58.5303V61.6743H57.2178V49.6416H58.5303V54.3104H64.8622V49.6416H66.1747V61.6743ZM64.9824 61.5541H66.0544V49.7618H64.9824V54.4206H58.41V49.7618H57.338V61.5541H58.41V55.3624H64.9824V61.5541Z" fill="#FEFEFE"/>
<path d="M68.4492 55.6432C68.4492 52.0665 70.8938 49.5518 74.4004 49.5518C77.907 49.5518 80.3416 52.0665 80.3416 55.6432C80.3416 59.22 77.907 61.7548 74.4004 61.7548C70.8938 61.7548 68.4492 59.22 68.4492 55.6432ZM79.0993 55.6432C79.0993 52.7778 77.1256 50.7039 74.4004 50.7039C71.6653 50.7039 69.6916 52.7778 69.6916 55.6432C69.6916 58.5187 71.6653 60.5926 74.4004 60.5926C77.1256 60.5926 79.0993 58.5187 79.0993 55.6432Z" fill="#FEFEFE"/>
<path d="M74.4 61.8144C70.8633 61.8144 68.3887 59.2697 68.3887 55.6428C68.3887 52.016 70.8633 49.4912 74.4 49.4912C77.9367 49.4912 80.4013 52.016 80.4013 55.6428C80.4013 59.2697 77.9367 61.8144 74.4 61.8144ZM74.4 49.6114C70.9335 49.6114 68.5089 52.0861 68.5089 55.6428C68.5089 59.2095 70.9335 61.6942 74.4 61.6942C77.8665 61.6942 80.2811 59.2095 80.2811 55.6428C80.2811 52.0861 77.8665 49.6114 74.4 49.6114ZM74.4 60.6523C71.6348 60.6523 69.631 58.5483 69.631 55.6428C69.631 52.7474 71.6348 50.6434 74.4 50.6434C77.1652 50.6434 79.159 52.7474 79.159 55.6428C79.159 58.5483 77.1652 60.6523 74.4 60.6523ZM74.4 50.7636C71.7049 50.7636 69.7512 52.8175 69.7512 55.6428C69.7512 58.4782 71.7049 60.532 74.4 60.532C77.0951 60.532 79.0388 58.4782 79.0388 55.6428C79.0388 52.8175 77.0951 50.7636 74.4 50.7636Z" fill="#FEFEFE"/>
<path d="M82.3252 57.2564V49.7021H83.5174V57.2564C83.5174 59.3403 84.7397 60.5827 86.7636 60.5827C88.6371 60.5827 89.7792 59.3503 89.7792 57.2564V49.7021H90.9715V57.2564C90.9715 60.0316 89.4186 61.7348 86.7636 61.7348C83.9583 61.7348 82.3252 60.0316 82.3252 57.2564Z" fill="#FEFEFE"/>
<path d="M86.7631 61.7945C83.9478 61.7945 82.2646 60.1013 82.2646 57.256V49.6416H83.5671V57.256C83.5671 59.2998 84.7694 60.5221 86.7631 60.5221C88.6166 60.5221 89.7187 59.2998 89.7187 57.256V49.6416H91.0312V57.256C91.0312 60.1013 89.4382 61.7945 86.7631 61.7945ZM82.3849 49.7618V57.256C82.3849 60.0212 84.018 61.6743 86.7631 61.6743C89.358 61.6743 90.911 60.0212 90.911 57.256V49.7618H89.8389V57.256C89.8389 59.3699 88.6868 60.6323 86.7631 60.6323C84.6892 60.6323 83.4569 59.3699 83.4569 57.256V49.7618H82.3849Z" fill="#FEFEFE"/>
<path d="M92.7754 58.8791L93.627 58.0375C94.3584 59.5704 95.9414 60.5422 97.6746 60.5422C99.6684 60.5422 100.69 59.6405 100.69 58.4984C100.69 57.4965 99.7886 56.7851 98.2257 56.2742L96.9633 55.8634C94.2081 54.9918 93.2863 54.08 93.2863 52.5271C93.2863 50.7738 94.7792 49.5615 97.1837 49.5615C99.3277 49.5615 100.841 50.8439 101.322 51.8759L100.52 52.7275C100.009 51.7456 99.0071 50.7738 97.1637 50.7738C95.4805 50.7738 94.4786 51.4351 94.4786 52.5472C94.4786 53.4789 95.24 54.04 97.3039 54.6712L98.4461 55.0318C101.101 55.8434 101.883 56.9054 101.883 58.4483C101.883 60.3919 100.209 61.7545 97.7748 61.7545C95.741 61.7545 93.607 60.5823 92.7754 58.8791Z" fill="#FEFEFE"/>
<path d="M97.7746 61.8142C95.6707 61.8142 93.5467 60.5919 92.7251 58.8987L92.7051 58.8586L93.6468 57.9369L93.6769 58.017C94.3983 59.5199 95.9612 60.4817 97.6744 60.4817C99.4678 60.4817 100.63 59.7102 100.63 58.4979C100.637 57.5762 99.8285 56.8515 98.2054 56.3238L96.9431 55.9231C94.238 55.0615 93.2261 54.1497 93.2261 52.5267C93.2261 50.6932 94.779 49.501 97.1835 49.501C99.4678 49.501 100.941 50.9136 101.371 51.8554L101.391 51.8955L100.51 52.8373L100.47 52.7571C100.009 51.8755 99.0671 50.8335 97.1635 50.8335C95.5204 50.8335 94.5385 51.4747 94.5385 52.5467C94.5385 53.4484 95.2599 53.9894 97.3238 54.6106L98.4559 54.9713C100.931 55.7327 101.942 56.7446 101.942 58.4478C101.942 60.4316 100.229 61.8142 97.7746 61.8142ZM92.8453 58.8887C93.6669 60.5117 95.7308 61.694 97.7746 61.694C100.159 61.694 101.822 60.3615 101.822 58.4478C101.822 57.0552 101.241 55.9531 98.4259 55.0815L97.2837 54.7308C95.1697 54.0796 94.4183 53.5085 94.4183 52.5467C94.4183 51.3945 95.4402 50.7133 97.1635 50.7133C99.0771 50.7133 100.049 51.7352 100.53 52.6269L101.251 51.8654C100.81 50.9537 99.3777 49.6212 97.1835 49.6212C94.8491 49.6212 93.3463 50.7634 93.3463 52.5267C93.3463 54.0796 94.3281 54.9713 96.9831 55.8029L98.2355 56.2136C99.9187 56.7547 100.757 57.5161 100.75 58.4979C100.75 59.7804 99.538 60.6019 97.6744 60.6019C95.9512 60.6019 94.3582 59.6401 93.6068 58.1373L92.8453 58.8887Z" fill="#FEFEFE"/>
<path d="M103.927 49.6816H112.142V50.7436H105.119V54.3605H111.331V55.4225H105.119V60.5622H112.313V61.6141H103.927V49.6816Z" fill="#FEFEFE"/>
<path d="M112.372 61.6738H103.866V49.6211H112.202V50.8033H105.179V54.3099H111.39V55.4821H105.179V60.5016H112.372V61.6738ZM103.986 61.5536H112.262V60.6218H105.058V55.3619H111.27V54.4201H105.058V50.6831H112.092V49.7413H103.986V61.5536Z" fill="#FEFEFE"/>
<path d="M24.3256 78.0544H24.8266C24.9936 78.0544 25.1305 78.031 25.2374 77.9843C25.3375 77.9442 25.4311 77.8707 25.5179 77.7638L28.7339 74.127C28.8208 74.0068 28.9143 73.9266 29.0145 73.8865C29.1147 73.8398 29.2349 73.8164 29.3752 73.8164H30.4873L26.8003 77.9742C26.7135 78.0811 26.63 78.1713 26.5498 78.2448C26.463 78.3115 26.3728 78.3683 26.2793 78.4151C26.3995 78.4551 26.5098 78.5153 26.6099 78.5954C26.7101 78.6689 26.807 78.7691 26.9005 78.896L30.7377 83.4746H29.6056C29.5254 83.4746 29.452 83.4679 29.3852 83.4546C29.3251 83.4479 29.275 83.4312 29.2349 83.4045C29.1881 83.3778 29.1481 83.3477 29.1147 83.3143C29.0813 83.2809 29.0479 83.2442 29.0145 83.2041L25.6882 79.3669C25.5947 79.2533 25.4978 79.1732 25.3977 79.1264C25.2908 79.0797 25.1338 79.0563 24.9268 79.0563H24.3256V83.4746H23.0332V73.8164H24.3256V78.0544Z" fill="#FEFEFE"/>
<path d="M42.5099 83.4746H41.498C41.3845 83.4746 41.291 83.4446 41.2175 83.3844C41.144 83.331 41.0906 83.2575 41.0572 83.164L40.1555 80.8296H35.8173L34.9156 83.164C34.8889 83.2442 34.8355 83.3176 34.7553 83.3844C34.6819 83.4446 34.5883 83.4746 34.4748 83.4746H33.4629L37.3302 73.8164H38.6527L42.5099 83.4746ZM39.7848 79.8879L38.2619 75.9604C38.2219 75.8402 38.1751 75.7033 38.1217 75.5497C38.0749 75.396 38.0282 75.2324 37.9814 75.0587C37.8879 75.4194 37.791 75.72 37.6909 75.9604L36.178 79.8879H39.7848Z" fill="#FEFEFE"/>
<path d="M51.9679 82.3725V83.4746H46.4775V73.8164H47.78V82.3725H51.9679Z" fill="#FEFEFE"/>
<path d="M58.4505 79.6274V83.4746H57.148V79.6274L53.6113 73.8164H54.7535C54.8737 73.8164 54.9672 73.8431 55.034 73.8966C55.1008 73.9567 55.1576 74.0301 55.2043 74.117L57.4185 77.8741C57.4987 78.0344 57.5721 78.1813 57.6389 78.3149C57.7057 78.4551 57.7658 78.5921 57.8193 78.7257C57.866 78.5921 57.9195 78.4551 57.9796 78.3149C58.0464 78.1813 58.1165 78.0344 58.19 77.8741L60.3941 74.117C60.4342 74.0435 60.491 73.9734 60.5644 73.9066C60.6379 73.8465 60.7314 73.8164 60.845 73.8164H61.9971L58.4505 79.6274Z" fill="#FEFEFE"/>
<path d="M73.7684 73.8164V83.4746H73.1071C73.0069 83.4746 72.9201 83.4579 72.8466 83.4245C72.7798 83.3844 72.713 83.3243 72.6462 83.2442L67.0557 75.9604C67.0624 76.074 67.0691 76.1842 67.0757 76.2911C67.0824 76.3979 67.0858 76.4981 67.0858 76.5916V83.4746H65.9336V73.8164H66.6149C66.6683 73.8164 66.7151 73.8197 66.7551 73.8264C66.7952 73.8331 66.832 73.8431 66.8654 73.8565C66.8987 73.8765 66.9321 73.8999 66.9655 73.9266C66.9923 73.9533 67.0256 73.9901 67.0657 74.0368L72.6563 81.3105C72.6429 81.197 72.6329 81.0834 72.6262 80.9699C72.6195 80.863 72.6162 80.7595 72.6162 80.6593V73.8164H73.7684Z" fill="#FEFEFE"/>
<path d="M80.2312 83.4746H78.9287V73.8164H80.2312V83.4746Z" fill="#FEFEFE"/>
<path d="M93.256 73.8164L89.3186 83.4746H88.1464L84.209 73.8164H85.2509C85.3712 73.8164 85.4647 73.8465 85.5315 73.9066C85.6049 73.96 85.6584 74.0335 85.6918 74.127L88.4169 80.9398C88.477 81.0935 88.5338 81.2604 88.5872 81.4408C88.6474 81.6211 88.7008 81.8081 88.7475 82.0018C88.7876 81.8081 88.8344 81.6211 88.8878 81.4408C88.9346 81.2604 88.988 81.0935 89.0481 80.9398L91.7632 74.127C91.7899 74.0468 91.8434 73.9767 91.9235 73.9166C92.0037 73.8498 92.0972 73.8164 92.2041 73.8164H93.256Z" fill="#FEFEFE"/>
<path d="M0.220703 67.0537V68.266H112.152V67.0537H0.220703Z" fill="#FEFEFE"/>
</svg>
