<svg width="56" height="42" viewBox="0 0 56 42" fill="none" xmlns="http://www.w3.org/2000/svg">
<g clip-path="url(#clip0_114_8)">
<path d="M13.8086 0.516602C14.1917 0.150992 14.7949 0.161969 15.1582 0.541016L15.1592 0.542969L21.5713 7.14453V7.14551C21.946 7.52817 21.9365 8.12974 21.5576 8.49316L21.5566 8.49512L15.0137 14.8467L15.0127 14.8477C14.6412 15.2108 14.0295 15.2036 13.665 14.8232L13.6641 14.8213L7.25195 8.21973C6.90981 7.8617 6.89515 7.30819 7.20996 6.93164L7.27734 6.85938L13.8096 0.517578L13.8086 0.516602Z" fill="#FEFEFE" stroke="black" stroke-width="0.5"/>
<path d="M41.1191 1.1377C41.5021 0.772053 42.1054 0.783029 42.4688 1.16211L42.4697 1.16406L48.8916 7.76562C49.2564 8.14723 49.2491 8.7511 48.8672 9.12598L42.3242 15.4678L42.3232 15.4688C41.9518 15.8319 41.3401 15.8247 40.9756 15.4443L40.9746 15.4424L34.5625 8.84082C34.1966 8.45795 34.207 7.8556 34.5859 7.49219L34.5879 7.49023L41.1191 1.1377Z" fill="#FEFEFE" stroke="black" stroke-width="0.5"/>
<path d="M27.0771 10.7549L14.7744 23.1279L14.7227 23.1787V39.1045L15.0225 38.8037L27.3252 26.4307L27.376 26.3789V10.4541L27.0771 10.7549ZM13.7109 23.1689L0.24707 9.70508L0.961914 8.99023L14.1035 22.123L14.2275 22.2471L14.3506 22.1221L27.8828 8.5L41.4238 22.1221L41.5479 22.2471L41.6719 22.123L54.8125 8.99023L55.5273 9.70508L42.1055 23.1279L42.0547 23.1787V39.1123L42.3535 38.8145L54.8125 26.3633L55.5273 27.0781L41.5488 41.0566L28.6875 28.127L28.3887 27.8262V41.1104H27.376V27.8262L27.0771 28.127L14.2256 41.0566L0.24707 27.0781L0.961914 26.3643L13.4121 38.8145L13.7109 39.1123V23.1689ZM41.0322 23.1689L40.9814 23.1182L28.6885 10.7549L28.3887 10.4541V26.3789L28.4395 26.4307L40.7324 38.8037L41.0322 39.1045V23.1689Z" fill="#FEFEFE" stroke="black" stroke-width="0.35"/>
</g>
<defs>
<clipPath id="clip0_114_8">
<rect width="56" height="42" fill="white"/>
</clipPath>
</defs>
</svg>
